# xmcd
#
# Track frame offsets: 
#        150
#        15643
#        32486
#        39919
#        56163
#        75465
#        91971
#        107790
#        121773
#        139743
#        153873
#        167305
#        180136
#
# Disc length: 2558 seconds
#
# Revision: 0
# Processed by: cddbd v1.5.2PL0 Copyright (c) Steve Scherf et al.
# Submitted via: ExactAudioCopy v0.99pb1
#
DISCID=8809fc0d
DTITLE=Simone White - I Am the Man
DYEAR=1900
DGENRE=
TTITLE0=I Didn't Have Any Summer Roman
TTITLE1=Worm Was Wood
TTITLE2=Beep Beep Song
TTITLE3=American War
TTITLE4=Roses Are Not Red
TTITLE5=Great Imperialist State
TTITLE6=Mary Jane
TTITLE7=You May Be In The Darkness
TTITLE8=Sweetest Love Song
TTITLE9=We Used To Stand So Tall
TTITLE10=Why Is Your Raincoat Always Cr
TTITLE11=Only The Moon
TTITLE12=I Am The Man
EXTD=
EXTT0=
EXTT1=
EXTT2=
EXTT3=
EXTT4=
EXTT5=
EXTT6=
EXTT7=
EXTT8=
EXTT9=
EXTT10=
EXTT11=
EXTT12=
PLAYORDER=
